<?xml version="1.0" encoding="UTF-8" standalone="yes"?>
<!DOCTYPE svg PUBLIC "-//W3C//DTD SVG 1.1//EN" "http://www.w3.org/Graphics/SVG/1.1/DTD/svg11.dtd">

<svg width="24" height="25" viewBox="0 0 24 25" xmlns="http://www.w3.org/2000/svg" xmlns:xlink="http://www.w3.org/1999/xlink" version="1.1" baseProfile="full">
    <g transform="scale(1,-1) translate(0,-25)">
        <rect width="24" height="25" style="fill:rgb(255,254,254)"></rect>
        <path d="M 24.714287 13.250000 C 24.714287 6.482863 19.407259 1.000000 12.857144 1.000000 C 6.307028 1.000000 1.000000 6.482863 1.000000 13.250000 C 1.000000 20.017137 6.307028 25.500000 12.857144 25.500000 C 19.407259 25.500000 24.714287 20.017137 24.714287 13.250000 Z M 13.669932 7.623891 L 20.148331 14.316936 C 20.597755 14.781250 20.597755 15.532057 20.148331 15.991432 L 19.335543 16.831150 C 18.886119 17.295464 18.159390 17.295464 17.714748 16.831150 L 12.857144 11.812601 L 7.999539 16.831149 C 7.550115 17.295464 6.823387 17.295464 6.378744 16.831149 L 5.565956 15.991431 C 5.116532 15.527117 5.116532 14.776310 5.565956 14.316935 L 12.044356 7.623891 C 12.493780 7.159577 13.220508 7.159577 13.669932 7.623891 Z" transform="scale(1.000000,1.000000) translate(-1.000000,-1.000000)" fill="#00bbf0" opacity="1.000000"></path>
    </g>
</svg>